<svg id="visual" viewBox="0 0 900 600" width="900" height="600" xmlns="http://www.w3.org/2000/svg" xmlns:xlink="http://www.w3.org/1999/xlink" version="1.1"><rect x="0" y="0" width="900" height="600" fill="#8fbe8f"></rect><path d="M0 427L129 378L257 381L386 357L514 437L643 447L771 358L900 399L900 601L771 601L643 601L514 601L386 601L257 601L129 601L0 601Z" fill="#009451"></path><path d="M0 477L129 436L257 428L386 407L514 427L643 405L771 430L900 444L900 601L771 601L643 601L514 601L386 601L257 601L129 601L0 601Z" fill="#009144"></path><path d="M0 482L129 451L257 508L386 510L514 446L643 487L771 461L900 453L900 601L771 601L643 601L514 601L386 601L257 601L129 601L0 601Z" fill="#008e35"></path><path d="M0 512L129 512L257 515L386 523L514 491L643 506L771 489L900 504L900 601L771 601L643 601L514 601L386 601L257 601L129 601L0 601Z" fill="#008b24"></path><path d="M0 544L129 552L257 539L386 556L514 547L643 559L771 536L900 534L900 601L771 601L643 601L514 601L386 601L257 601L129 601L0 601Z" fill="#00870c"></path></svg>